<svg width="64" height="64" viewBox="0 0 64 64" fill="none" xmlns="http://www.w3.org/2000/svg">
<path d="M57.7587 29.6016C57.2416 28.705 56.3756 28.0629 55.3673 27.8288V22.3083C55.3673 10.0179 44.8735 0 31.9763 0C19.0791 0 8.58529 10.0179 8.58529 22.3083V27.8288C7.57294 28.0771 6.7102 28.7371 6.20574 29.6492C5.81356 30.4052 5.62096 31.2489 5.64654 32.1001V44.2477C5.62304 45.095 5.81549 45.9344 6.20574 46.6868C7.00274 48.055 8.51911 48.8388 10.0963 48.6975H11.9405C12.016 49.9557 13.0596 50.9365 14.32 50.9343H16.414C17.7283 50.9343 18.7936 49.869 18.7936 48.5547V27.5552C18.7936 26.2409 17.7283 25.1756 16.414 25.1756H14.2605C12.9463 25.1756 11.881 26.2409 11.881 27.5552V27.6504H10.9172V22.3083C10.9172 11.3148 20.3403 2.37955 31.9287 2.37955C43.5171 2.37955 52.9401 11.3148 52.9401 22.3083V27.6504H51.9764V27.5552C51.9764 26.2409 50.9111 25.1756 49.5969 25.1756H47.5981C46.2838 25.1756 45.2185 26.2409 45.2185 27.5552V48.638C45.2471 49.8291 46.152 50.8154 47.3363 50.9462C47.1094 52.4594 46.4386 53.8714 45.4089 55.0033C43.5409 57.0735 40.4951 58.2633 36.3904 58.5726V58.0491C36.3261 56.6782 35.168 55.6157 33.7966 55.6696H28.6925C27.3211 55.6157 26.163 56.6782 26.0988 58.0491V61.6185C26.163 62.9894 27.3211 64.0518 28.6925 63.998H33.8442C35.2156 64.0518 36.3737 62.9894 36.438 61.6185V60.9522C41.2565 60.6309 44.8973 59.1794 47.2173 56.6214C48.6631 55.0473 49.5749 53.057 49.8229 50.9343C51.0237 50.8645 51.9836 49.9097 52.0597 48.7094H53.9039C55.4809 48.8507 56.9974 48.0669 57.7944 46.6987C58.1847 45.9463 58.3771 45.1069 58.3536 44.2596V32.1001C58.3764 31.2297 58.1713 30.3684 57.7587 29.6016ZM14.32 46.4131V29.9823C14.3322 29.8437 14.3322 29.7045 14.32 29.5659V27.6028L16.3188 27.5433V48.5666H14.32V46.4131ZM11.9405 29.9228V46.318H10.0963C8.71616 46.318 8.39492 45.735 8.28784 45.5327C8.0954 45.1285 8.00542 44.683 8.02609 44.2358V32.1001C7.99977 31.65 8.08558 31.2002 8.27595 30.7914C8.38303 30.601 8.70427 30.0061 10.0844 30.0061L11.9405 29.9228ZM34.106 59.7862V61.4162C34.053 61.513 33.9543 61.5758 33.8442 61.5828H28.6925C28.6292 61.5874 28.5655 61.5874 28.5021 61.5828V58.1086C28.5686 58.0539 28.6544 58.0282 28.7401 58.0372H33.8918C34.0227 58.0372 34.106 58.0372 34.106 58.0372V59.7862ZM49.6445 29.9823V48.5666H48.7045H48.5618H48.4666H47.6337V27.5552H49.6802L49.6445 29.9823ZM55.6647 45.5565C55.5577 45.7469 55.2364 46.3417 53.8563 46.3417H52.024V30.0299H53.8563C55.2364 30.0299 55.5577 30.6129 55.6647 30.8152C55.8572 31.2194 55.9472 31.6648 55.9265 32.112V44.2596C55.947 44.7068 55.8572 45.1523 55.6647 45.5565Z" fill="white"/>
</svg>
