<svg width="217" height="61" viewBox="0 0 217 61" fill="none" xmlns="http://www.w3.org/2000/svg">
<rect width="7.17647" height="53.8235" transform="matrix(1 0 -0.371206 0.928551 25.3621 8.97058)" fill="#FEE000"/>
<rect width="7.17647" height="53.8235" transform="matrix(1 0 -0.371206 0.928551 39.7148 1.79413)" fill="#FEE000"/>
<rect width="7.17647" height="53.8235" transform="matrix(1 0 -0.371206 0.928551 48.6855 8.97058)" fill="#FEE000"/>
<path d="M80.0983 47C76.7898 47 74.4398 46.1004 73.0481 44.3012C71.6827 42.4763 71 39.906 71 36.5904V25.4482C71 22.0297 71.6827 19.4337 73.0481 17.6602C74.4135 15.8867 76.7636 15 80.0983 15C83.223 15 85.4418 15.7711 86.7547 17.3133C88.0676 18.8554 88.724 21.0787 88.724 23.9831V26.6048H83.1311V23.906C83.1311 22.8008 83.0786 21.9398 82.9736 21.3229C82.8685 20.6803 82.5928 20.1663 82.1464 19.7807C81.7263 19.3695 81.0567 19.1639 80.1377 19.1639C79.1924 19.1639 78.4835 19.3823 78.0108 19.8193C77.5382 20.2305 77.2231 20.796 77.0656 21.5157C76.9343 22.2096 76.8686 23.1221 76.8686 24.253V37.7855C76.8686 39.559 77.1049 40.8442 77.5776 41.641C78.0502 42.412 78.9036 42.7976 80.1377 42.7976C81.0305 42.7976 81.6869 42.592 82.107 42.1807C82.5534 41.7695 82.8291 41.2297 82.9342 40.5614C83.0655 39.8675 83.1311 38.955 83.1311 37.8241V35.0096H88.724V37.5157C88.724 40.5229 88.0807 42.8618 86.7941 44.5325C85.5074 46.1775 83.2755 47 80.0983 47Z" fill="white"/>
<path d="M97.5482 15.347H103.771L110.152 46.5759H104.756L103.496 39.3663H97.942L96.6423 46.5759H91.1675L97.5482 15.347ZM102.865 35.7422L100.699 22.6337L98.5328 35.7422H102.865Z" fill="white"/>
<path d="M113.833 15.347H119.859L124.389 36.9759L129.076 15.347H134.944L135.535 46.5759H131.203L130.73 24.8699L126.2 46.5759H122.695L118.087 24.7928L117.654 46.5759H113.282L113.833 15.347Z" fill="white"/>
<path d="M140.246 15.347H148.124C151.143 15.347 153.454 15.951 155.056 17.159C156.658 18.3671 157.458 20.4361 157.458 23.3663C157.458 25.2683 157.065 26.759 156.277 27.8386C155.489 28.8924 154.347 29.5349 152.85 29.7663C156.526 30.4602 158.364 33.0305 158.364 37.4771C158.364 40.4843 157.616 42.759 156.119 44.3012C154.623 45.8177 152.404 46.5759 149.463 46.5759H140.246V15.347ZM148.045 28.1084C149.725 28.1084 150.868 27.7486 151.472 27.0289C152.102 26.2835 152.417 25.0884 152.417 23.4434C152.417 21.8498 152.01 20.7703 151.196 20.2048C150.408 19.6137 149.082 19.3181 147.218 19.3181H146.036V28.1084H148.045ZM148.281 42.5663C149.988 42.5663 151.17 42.1679 151.826 41.3711C152.483 40.5743 152.811 39.2635 152.811 37.4386C152.811 35.5622 152.443 34.2 151.708 33.3518C150.999 32.4779 149.791 32.041 148.084 32.041H146.036V42.5663H148.281Z" fill="white"/>
<path d="M162.171 15.347H175.562V19.3566H167.96V28.3398H173.947V32.3108H167.96V42.6819H175.641V46.5759H162.171V15.347Z" fill="white"/>
<path d="M179.018 15.347H188.392C193.827 15.347 196.545 18.3028 196.545 24.2145C196.545 29.8691 193.696 32.6964 187.998 32.6964H184.808V46.5759H179.018V15.347ZM187.053 28.6867C188.628 28.6867 189.691 28.3655 190.243 27.7229C190.794 27.0546 191.07 25.8723 191.07 24.1759C191.07 22.9422 190.978 22.004 190.794 21.3614C190.611 20.6932 190.23 20.192 189.652 19.8578C189.101 19.5237 188.234 19.3566 187.053 19.3566H184.808V28.6867H187.053Z" fill="white"/>
<path d="M208.374 47C205.066 47 202.716 46.1004 201.324 44.3012C199.959 42.4763 199.276 39.906 199.276 36.5904V25.4482C199.276 22.0297 199.959 19.4337 201.324 17.6602C202.689 15.8867 205.04 15 208.374 15C211.499 15 213.718 15.7711 215.031 17.3133C216.344 18.8554 217 21.0787 217 23.9831V26.6048H211.407V23.906C211.407 22.8008 211.355 21.9398 211.25 21.3229C211.145 20.6803 210.869 20.1663 210.422 19.7807C210.002 19.3695 209.333 19.1639 208.414 19.1639C207.468 19.1639 206.759 19.3823 206.287 19.8193C205.814 20.2305 205.499 20.796 205.342 21.5157C205.21 22.2096 205.145 23.1221 205.145 24.253V37.7855C205.145 39.559 205.381 40.8442 205.854 41.641C206.326 42.412 207.18 42.7976 208.414 42.7976C209.306 42.7976 209.963 42.592 210.383 42.1807C210.829 41.7695 211.105 41.2297 211.21 40.5614C211.341 39.8675 211.407 38.955 211.407 37.8241V35.0096H217V37.5157C217 40.5229 216.357 42.8618 215.07 44.5325C213.783 46.1775 211.551 47 208.374 47Z" fill="white"/>
</svg>
