<svg width="64" height="64" viewBox="0 0 64 64" fill="none" xmlns="http://www.w3.org/2000/svg">
<path d="M35.25 51.5C34.56 51.5 34 52.06 34 52.75C34 53.44 34.56 54 35.25 54C35.94 54 36.5 53.44 36.5 52.75C36.5 52.06 35.94 51.5 35.25 51.5Z" fill="white"/>
<path d="M30.25 51.5H21.25C20.5596 51.5 20 52.0598 20 52.75C20 53.4402 20.5596 54 21.25 54H30.25C30.9404 54 31.5 53.4402 31.5 52.75C31.5 52.0598 30.9404 51.5 30.25 51.5Z" fill="white"/>
<path d="M45.25 46.5H11.25C7.80375 46.5 5 49.3038 5 52.75C5 56.1962 7.80375 59 11.25 59H45.25C48.6963 59 51.5 56.1962 51.5 52.75C51.5 49.3038 48.6963 46.5 45.25 46.5ZM11.25 56.5C9.18225 56.5 7.5 54.8177 7.5 52.75C7.5 50.6823 9.18225 49 11.25 49C13.3177 49 15 50.6823 15 52.75C15 54.8177 13.3177 56.5 11.25 56.5ZM40.2534 56.5H16.2466C17.0331 55.4546 17.5 54.156 17.5 52.75C17.5 51.344 17.0331 50.0454 16.2466 49H40.2534C39.4669 50.0454 39 51.3441 39 52.75C39 54.1559 39.4669 55.4546 40.2534 56.5ZM45.25 56.5C43.1823 56.5 41.5 54.8177 41.5 52.75C41.5 50.6823 43.1823 49 45.25 49C47.3177 49 49 50.6823 49 52.75C49 54.8177 47.3177 56.5 45.25 56.5Z" fill="white"/>
<path d="M62.75 37.75C62.0596 37.75 61.5 38.3097 61.5 39C61.5 40.3785 60.3785 41.5 59 41.5C57.6215 41.5 56.5 40.3785 56.5 39C56.5 37.6215 57.6215 36.5 59 36.5C59.6904 36.5 60.25 35.9403 60.25 35.25V31.5C60.7235 31.5 61.1562 31.2325 61.368 30.809L63.868 25.809C64.044 25.4573 64.044 25.0429 63.868 24.6911L61.368 19.6911C61.1562 19.2675 60.7235 19 60.25 19V5C60.25 2.243 58.007 0 55.25 0C53.4439 0 51.7895 0.970125 50.9016 2.53662L37.9487 20.3511L37.7504 19.9544C36.6842 17.8236 34.5421 16.5 32.16 16.5H13.75C10.3038 16.5 7.5 19.3026 7.5 22.7475V29H6.25C4.18225 29 2.5 30.6823 2.5 32.75V40.25C2.5 41.7451 3.37987 43.0384 4.64875 43.6401C4.17262 43.9865 3.71913 44.3709 3.29463 44.7951C1.17 46.9211 0 49.7464 0 52.75C0 58.9533 5.04675 64 11.25 64H45.25C48.2537 64 51.0788 62.83 53.2055 60.7049C55.33 58.5789 56.5 55.7536 56.5 52.75C56.5 47.791 53.2746 43.5715 48.8116 42.0781L44.8341 34.124L57.75 10.7175V19C57.2765 19 56.8438 19.2675 56.632 19.691L54.132 24.691C53.956 25.0427 53.956 25.4571 54.132 25.8089L56.632 30.8089C56.8438 31.2325 57.2765 31.5 57.75 31.5V34.1582C55.5959 34.7147 54 36.6745 54 39C54 41.757 56.243 44 59 44C61.757 44 64 41.757 64 39C64 38.3097 63.4404 37.75 62.75 37.75ZM36.978 24L41.9775 34H25V24H36.978ZM54 52.75C54 55.0863 53.0898 57.2839 51.4376 58.9371C49.7838 60.5899 47.5863 61.5 45.25 61.5H11.25C6.42525 61.5 2.5 57.5749 2.5 52.75C2.5 50.4137 3.41025 48.2161 5.06238 46.5629C6.71625 44.9101 8.91375 44 11.25 44H45.25C50.0747 44 54 47.9251 54 52.75ZM45.7275 41.5H6.25C5.56075 41.5 5 40.9393 5 40.25V32.75C5 32.0607 5.56075 31.5 6.25 31.5H8.75C9.44038 31.5 10 30.9403 10 30.25V22.7475C10 20.6811 11.6823 19 13.75 19H32.16C33.5894 19 34.8749 19.7944 35.5144 21.0725L35.7281 21.5H16.25C15.5596 21.5 15 22.0597 15 22.75V35.25C15 35.9403 15.5596 36.5 16.25 36.5H43.227L45.7275 41.5ZM22.5 24V34H17.5V24H22.5ZM43.477 31.4089L39.208 22.8701L50.6989 7.06663C51.4869 8.795 53.2298 10 55.25 10C55.2639 10 55.2775 9.999 55.2912 9.99887L43.477 31.4089ZM57.6323 5.75488L57.1625 6.6075C56.6855 7.17537 55.9938 7.5 55.25 7.5C53.8715 7.5 52.75 6.3785 52.75 5C52.75 4.60488 52.84 4.22888 53.0156 3.88025L53.4849 3.23487C53.4874 3.23137 53.4894 3.22775 53.4919 3.22425C53.9533 2.76725 54.5807 2.5 55.25 2.5C56.6285 2.5 57.75 3.6215 57.75 5C57.75 5.259 57.7094 5.51225 57.6323 5.75488ZM56.6475 25.25L58.5225 21.5H59.4775L61.3525 25.25L59.4775 29H58.5225L56.6475 25.25Z" fill="white"/>
</svg>
