<svg width="107" height="30" viewBox="0 0 107 30" fill="none" xmlns="http://www.w3.org/2000/svg">
<rect width="3.53863" height="26.4801" transform="matrix(1 0 -0.372041 0.928216 12.5057 4.41177)" fill="#FEE000"/>
<rect width="3.53863" height="26.4801" transform="matrix(1 0 -0.372041 0.928216 19.5829 0.882355)" fill="#FEE000"/>
<rect width="3.53863" height="26.4801" transform="matrix(1 0 -0.372041 0.928216 24.0062 4.41177)" fill="#FEE000"/>
<path d="M39.4955 23.1147C37.8641 23.1147 36.7053 22.6723 36.0191 21.7875C35.3458 20.89 35.0092 19.6259 35.0092 17.9953V12.5155C35.0092 10.8343 35.3458 9.55757 36.0191 8.68536C36.6924 7.81315 37.8512 7.37704 39.4955 7.37704C41.0362 7.37704 42.1303 7.75627 42.7777 8.51471C43.425 9.27315 43.7487 10.3666 43.7487 11.795V13.0843H40.9909V11.7571C40.9909 11.2135 40.965 10.79 40.9132 10.4867C40.8614 10.1706 40.7255 9.91783 40.5054 9.72822C40.2982 9.52597 39.9681 9.42484 39.5149 9.42484C39.0488 9.42484 38.6992 9.53229 38.4662 9.74718C38.2331 9.94943 38.0777 10.2275 38.0001 10.5815C37.9353 10.9228 37.903 11.3715 37.903 11.9277V18.583C37.903 19.4553 38.0195 20.0873 38.2525 20.4792C38.4856 20.8584 38.9064 21.048 39.5149 21.048C39.9551 21.048 40.2788 20.9469 40.486 20.7446C40.7061 20.5424 40.842 20.2769 40.8938 19.9482C40.9585 19.6069 40.9909 19.1582 40.9909 18.602V17.2179H43.7487V18.4503C43.7487 19.9293 43.4315 21.0796 42.7971 21.9012C42.1626 22.7102 41.0621 23.1147 39.4955 23.1147Z" fill="white"/>
<path d="M48.0998 7.54769H51.1683L54.3145 22.9062H51.6538L51.0324 19.3605H48.294L47.6531 22.9062H44.9536L48.0998 7.54769ZM50.7216 17.5781L49.6535 11.1313L48.5853 17.5781H50.7216Z" fill="white"/>
<path d="M56.1296 7.54769H59.1011L61.3345 18.1849L63.6456 7.54769H66.5393L66.8307 22.9062H64.6943L64.4613 12.2311L62.2279 22.9062H60.4994L58.2271 12.1932L58.0135 22.9062H55.8577L56.1296 7.54769Z" fill="white"/>
<path d="M69.1538 7.54769H73.038C74.5269 7.54769 75.6663 7.84475 76.4561 8.43887C77.2459 9.03298 77.6408 10.0506 77.6408 11.4916C77.6408 12.427 77.4466 13.1602 77.0581 13.6911C76.6697 14.2094 76.1065 14.5254 75.3685 14.6391C77.1811 14.9804 78.0875 16.2445 78.0875 18.4314C78.0875 19.9103 77.7185 21.029 76.9805 21.7875C76.2425 22.5333 75.1484 22.9062 73.6983 22.9062H69.1538V7.54769ZM72.9991 13.8238C73.8278 13.8238 74.391 13.6468 74.6888 13.2929C74.9995 12.9263 75.1549 12.3385 75.1549 11.5295C75.1549 10.7458 74.9542 10.2149 74.5528 9.93679C74.1644 9.64606 73.5106 9.50069 72.5913 9.50069H72.0087V13.8238H72.9991ZM73.1157 20.9342C73.9572 20.9342 74.5399 20.7383 74.8636 20.3464C75.1872 19.9546 75.3491 19.3099 75.3491 18.4124C75.3491 17.4896 75.1678 16.8197 74.8053 16.4025C74.4557 15.9727 73.8601 15.7578 73.0186 15.7578H72.0087V20.9342H73.1157Z" fill="white"/>
<path d="M79.9643 7.54769H86.5675V9.51965H82.8192V13.9376H85.7712V15.8906H82.8192V20.9911H86.6063V22.9062H79.9643V7.54769Z" fill="white"/>
<path d="M88.2714 7.54769H92.8936C95.5737 7.54769 96.9138 9.00138 96.9138 11.9087C96.9138 14.6897 95.509 16.0802 92.6994 16.0802H91.1263V22.9062H88.2714V7.54769ZM92.2333 14.1082C93.0101 14.1082 93.5345 13.9502 93.8064 13.6342C94.0783 13.3055 94.2142 12.7241 94.2142 11.8898C94.2142 11.283 94.1689 10.8216 94.0783 10.5056C93.9877 10.177 93.7999 9.93047 93.5151 9.76614C93.2432 9.60181 92.8159 9.51965 92.2333 9.51965H91.1263V14.1082H92.2333Z" fill="white"/>
<path d="M102.747 23.1147C101.115 23.1147 99.9566 22.6723 99.2704 21.7875C98.5971 20.89 98.2605 19.6259 98.2605 17.9953V12.5155C98.2605 10.8343 98.5971 9.55757 99.2704 8.68536C99.9437 7.81315 101.102 7.37704 102.747 7.37704C104.288 7.37704 105.382 7.75627 106.029 8.51471C106.676 9.27315 107 10.3666 107 11.795V13.0843H104.242V11.7571C104.242 11.2135 104.216 10.79 104.165 10.4867C104.113 10.1706 103.977 9.91783 103.757 9.72822C103.55 9.52597 103.219 9.42484 102.766 9.42484C102.3 9.42484 101.951 9.53229 101.717 9.74718C101.484 9.94943 101.329 10.2275 101.251 10.5815C101.187 10.9228 101.154 11.3715 101.154 11.9277V18.583C101.154 19.4553 101.271 20.0873 101.504 20.4792C101.737 20.8584 102.158 21.048 102.766 21.048C103.206 21.048 103.53 20.9469 103.737 20.7446C103.957 20.5424 104.093 20.2769 104.145 19.9482C104.21 19.6069 104.242 19.1582 104.242 18.602V17.2179H107V18.4503C107 19.9293 106.683 21.0796 106.048 21.9012C105.414 22.7102 104.313 23.1147 102.747 23.1147Z" fill="white"/>
</svg>
