<svg width="64" height="64" viewBox="0 0 64 64" fill="none" xmlns="http://www.w3.org/2000/svg">
<path d="M63.8766 34.9564C63.302 29.1765 60.7198 23.7276 56.6055 19.6131C53.0895 16.0972 48.7859 13.8378 44.2576 12.8331V9.65709C46.1071 9.19696 47.4819 7.52281 47.4819 5.5329C47.4819 3.18937 45.5753 1.28284 43.2318 1.28284H34.2317C31.8881 1.28284 29.9816 3.18937 29.9816 5.5329C29.9816 7.52268 31.3564 9.19684 33.2058 9.65709V12.842C28.6913 13.8509 24.402 16.1072 20.896 19.6132C20.1287 20.3805 19.4212 21.1854 18.7735 22.0219C18.7422 22.0195 18.7108 22.0172 18.6788 22.0172H9.77103C9.08077 22.0172 8.52101 22.5768 8.52101 23.2672C8.52101 23.9576 9.08077 24.5172 9.77103 24.5172H17.0726C16.1561 26.0516 15.4171 27.663 14.8546 29.3218H1.25002C0.559759 29.3218 0 29.8814 0 30.5718C0 31.2622 0.559759 31.8218 1.25002 31.8218H14.1482C13.788 33.4032 13.5812 35.0126 13.5278 36.6265H8.00012C7.30986 36.6265 6.75011 37.1861 6.75011 37.8765C6.75011 38.5669 7.30986 39.1266 8.00012 39.1266H13.5677C13.6732 40.7446 13.9333 42.3541 14.3482 43.9313H6.2501C5.55984 43.9313 5.00008 44.4909 5.00008 45.1813C5.00008 45.8717 5.55984 46.4313 6.2501 46.4313H15.146C16.3723 49.6752 18.2887 52.7156 20.896 55.3229C25.0143 59.4412 30.4688 62.024 36.2547 62.5957C37.0805 62.6772 37.9068 62.7175 38.7321 62.7175C43.6099 62.7175 48.4258 61.3059 52.5121 58.6449C53.0906 58.2681 53.2542 57.4937 52.8774 56.9152C52.5007 56.3367 51.7263 56.1731 51.1478 56.5498C42.203 62.3745 30.2237 61.1151 22.6637 53.5552C13.7933 44.6848 13.7933 30.2517 22.6637 21.3812C31.534 12.5109 45.9671 12.5109 54.8376 21.3812C62.3876 28.9313 63.6539 40.9003 57.8484 49.8407C57.4724 50.4197 57.637 51.194 58.2159 51.5699C58.7952 51.9459 59.5692 51.7812 59.9451 51.2022C63.0469 46.4253 64.4431 40.6558 63.8766 34.9564ZM32.4816 5.53303C32.4816 4.56801 33.2666 3.783 34.2317 3.783H43.2318C44.1968 3.783 44.9818 4.56801 44.9818 5.53303C44.9818 6.49804 44.1968 7.28306 43.2318 7.28306H43.0075H34.4558H34.2317C33.2666 7.28306 32.4816 6.49792 32.4816 5.53303ZM35.7058 12.4123V9.78309H41.7575V12.4078C39.748 12.1688 37.715 12.1703 35.7058 12.4123Z" fill="white"/>
<path d="M55.722 53.1885C55.392 53.1885 55.0707 53.3222 54.8384 53.5547C54.6046 53.7872 54.472 54.1097 54.472 54.4385C54.472 54.7672 54.6046 55.0897 54.8384 55.3222C55.0707 55.556 55.3921 55.6885 55.722 55.6885C56.0507 55.6885 56.372 55.556 56.6057 55.3222C56.8382 55.0897 56.972 54.7672 56.972 54.4385C56.972 54.1097 56.8384 53.7872 56.6057 53.5547C56.372 53.3222 56.0506 53.1885 55.722 53.1885Z" fill="white"/>
<path d="M38.7508 18.0763C28.0584 18.0763 19.3594 26.7752 19.3594 37.4677C19.3594 48.1603 28.0584 56.8591 38.7508 56.8591C49.4432 56.8591 58.1422 48.1603 58.1422 37.4677C58.1422 26.7752 49.4432 18.0763 38.7508 18.0763ZM38.7508 54.3591C29.4368 54.3591 21.8594 46.7816 21.8594 37.4677C21.8594 28.1538 29.4368 20.5763 38.7508 20.5763C48.0648 20.5763 55.6422 28.1538 55.6422 37.4677C55.6422 46.7816 48.0648 54.3591 38.7508 54.3591Z" fill="white"/>
<path d="M46.6578 27.7932L40.4665 33.9844C39.9487 33.7284 39.3663 33.5838 38.7507 33.5838C38.1349 33.5838 37.5527 33.7284 37.0349 33.9844L34.264 31.2135C33.7758 30.7254 32.9845 30.7254 32.4961 31.2135C32.008 31.7016 32.008 32.4932 32.4961 32.9813L35.267 35.7522C35.0109 36.27 34.8664 36.8524 34.8664 37.468C34.8664 39.6098 36.6088 41.3523 38.7507 41.3523C40.8926 41.3523 42.635 39.6098 42.635 37.468C42.635 36.8524 42.4904 36.27 42.2344 35.7522L48.244 29.7426L48.4256 29.561C48.9137 29.0729 48.9137 28.2813 48.4256 27.7932C47.9375 27.3051 47.1462 27.3051 46.6578 27.7932ZM38.7507 38.8524C37.9874 38.8524 37.3664 38.2314 37.3664 37.4681C37.3664 36.7049 37.9874 36.0838 38.7507 36.0838C39.514 36.0838 40.135 36.7049 40.135 37.4681C40.135 38.2314 39.514 38.8524 38.7507 38.8524Z" fill="white"/>
<path d="M52.1157 36.2331H50.9576C50.2673 36.2331 49.7076 36.7927 49.7076 37.4831C49.7076 38.1735 50.2673 38.7331 50.9576 38.7331H52.1157C52.806 38.7331 53.3657 38.1735 53.3657 37.4831C53.3657 36.7927 52.806 36.2331 52.1157 36.2331Z" fill="white"/>
<path d="M26.5437 36.2024H25.3857C24.6955 36.2024 24.1357 36.762 24.1357 37.4524C24.1357 38.1428 24.6955 38.7024 25.3857 38.7024H26.5437C27.234 38.7024 27.7937 38.1428 27.7937 37.4524C27.7937 36.762 27.234 36.2024 26.5437 36.2024Z" fill="white"/>
<path d="M38.766 26.5109C39.4562 26.5109 40.016 25.9513 40.016 25.2609V24.1029C40.016 23.4125 39.4562 22.8529 38.766 22.8529C38.0757 22.8529 37.516 23.4125 37.516 24.1029V25.2609C37.516 25.9513 38.0757 26.5109 38.766 26.5109Z" fill="white"/>
<path d="M38.7355 48.4252C38.0453 48.4252 37.4855 48.9848 37.4855 49.6752V50.8332C37.4855 51.5235 38.0453 52.0832 38.7355 52.0832C39.4258 52.0832 39.9855 51.5235 39.9855 50.8332V49.6752C39.9855 48.9848 39.4258 48.4252 38.7355 48.4252Z" fill="white"/>
<path d="M1.25 43.9306C0.921252 43.9306 0.598752 44.0644 0.366252 44.2969C0.133752 44.5294 1.90735e-06 44.8519 1.90735e-06 45.1806C1.90735e-06 45.5106 0.133627 45.8319 0.366252 46.0644C0.598877 46.2969 0.921252 46.4306 1.25 46.4306C1.57875 46.4306 1.90125 46.2969 2.13363 46.0644C2.36613 45.8319 2.5 45.5094 2.5 45.1806C2.5 44.8519 2.36625 44.5294 2.13363 44.2969C1.90125 44.0644 1.57875 43.9306 1.25 43.9306Z" fill="white"/>
</svg>
